<!DOCTYPE svg PUBLIC "-//W3C//DTD SVG 20010904//EN" "http://www.w3.org/TR/2001/REC-SVG-20010904/DTD/svg10.dtd">
<svg version="1.0" xmlns="http://www.w3.org/2000/svg" width="800" height="174" viewBox="0 0 16000 3480" preserveAspectRatio="xMidYMid meet">
<g id="layer101" fill="#eee" stroke="none">
 <path d="M1645 3425 c-29 -8 -59 -24 -72 -40 -31 -35 -26 -63 38 -222 60 -151 79 -224 79 -302 l0 -61 90 0 90 0 0 61 c0 78 19 151 80 302 26 67 51 140 55 163 6 37 3 44 -24 67 -17 14 -53 30 -81 36 -68 15 -193 13 -255 -4z"/>
 <path d="M1065 3321 c-43 -8 -168 -60 -173 -73 -2 -4 -8 -8 -13 -8 -12 0 -19 -6 -80 -60 -52 -45 -74 -88 -65 -123 7 -30 87 -107 201 -195 210 -161 288 -305 270 -496 -4 -42 -11 -76 -16 -76 -5 0 -9 12 -9 28 0 27 -43 158 -56 171 -12 11 -148 -145 -198 -228 -49 -82 -109 -225 -121 -292 l-7 -37 49 5 c26 3 74 14 106 23 68 21 64 10 -17 -44 -77 -51 -161 -76 -254 -76 -97 0 -160 16 -337 87 -81 32 -162 58 -191 61 -46 4 -53 2 -72 -23 -33 -42 -44 -90 -47 -215 -3 -92 0 -126 15 -170 37 -110 77 -113 296 -26 77 30 166 62 199 70 85 23 198 20 276 -5 59 -19 206 -106 196 -116 -3 -2 -31 5 -63 15 -33 11 -81 22 -107 25 l-49 5 7 -37 c12 -67 72 -210 121 -292 27 -45 81 -115 121 -157 59 -63 74 -74 83 -62 17 24 50 139 50 173 0 59 21 13 27 -59 15 -192 -64 -337 -272 -496 -116 -89 -194 -165 -202 -196 -13 -54 55 -129 186 -206 72 -42 120 -58 176 -58 80 -2 101 39 130 252 30 223 65 316 152 410 48 52 169 130 203 130 6 0 -18 -32 -54 -71 -36 -39 -66 -75 -66 -80 0 -12 87 -36 182 -50 88 -13 276 -7 343 11 101 26 115 31 115 39 0 5 -32 43 -71 85 -58 62 -66 74 -43 66 73 -28 149 -78 198 -130 88 -96 119 -181 155 -434 30 -207 55 -242 159 -226 66 11 144 50 229 115 75 57 110 108 100 146 -8 32 -86 108 -202 197 -210 161 -288 305 -270 496 4 42 10 76 15 76 4 0 11 -21 15 -47 8 -56 43 -153 55 -153 15 0 127 127 175 200 26 40 63 106 81 148 33 75 71 199 63 206 -9 9 -135 -16 -177 -34 l-45 -20 18 20 c68 75 205 130 323 130 97 0 159 -16 335 -86 163 -65 232 -77 261 -45 39 43 55 117 52 246 -2 97 -6 129 -23 167 -39 87 -77 87 -289 4 -178 -70 -240 -86 -336 -86 -93 0 -177 25 -254 76 -55 36 -93 73 -64 61 38 -15 119 -36 158 -40 51 -6 51 -7 12 112 -33 103 -55 149 -115 242 -41 64 -160 199 -175 199 -9 0 -47 -97 -56 -144 -3 -20 -10 -36 -14 -36 -16 0 -23 114 -12 179 24 139 112 257 297 398 102 77 175 155 175 186 0 28 -46 95 -86 125 -16 12 -34 26 -41 32 -7 5 -16 10 -22 10 -5 0 -11 4 -13 8 -8 19 -155 75 -200 76 -83 1 -104 -39 -133 -254 -30 -222 -65 -316 -151 -410 -49 -52 -125 -102 -198 -130 -23 -8 -15 4 43 66 40 42 70 82 68 88 -12 36 -313 67 -458 47 -91 -13 -179 -39 -179 -54 0 -5 33 -43 74 -84 81 -80 75 -84 -37 -26 -80 42 -162 126 -199 204 -33 70 -54 156 -73 299 -21 153 -39 214 -71 239 -15 12 -32 20 -38 20 -6 -1 -29 -5 -51 -8z m43 -69 c12 -38 -192 -172 -269 -175 -87 -5 -13 89 125 158 73 37 135 44 144 17z m1499 -23 c189 -99 208 -210 21 -121 -75 35 -141 82 -164 116 -38 60 33 62 143 5z m-620 -774 c133 -38 286 -139 369 -243 199 -250 222 -598 56 -862 -105 -167 -263 -283 -450 -331 -103 -26 -262 -26 -366 1 -330 84 -557 377 -557 720 0 290 153 536 417 668 155 78 361 96 531 47z m1479 -578 c17 -32 24 -183 12 -239 -14 -62 -42 -84 -68 -53 -34 41 -30 276 5 316 21 22 30 18 51 -24z m-3307 -1 c19 -41 20 -231 0 -271 -20 -41 -44 -43 -64 -6 -8 17 -15 33 -14 36 0 3 -2 31 -6 63 -7 63 8 176 26 198 18 22 42 13 58 -20z m789 -1512 c78 -38 167 -114 160 -136 -9 -24 -92 -13 -158 23 -107 57 -170 125 -143 153 13 12 64 -2 141 -40z m1810 20 c9 -66 -285 -219 -305 -158 -10 31 98 116 205 160 67 28 96 27 100 -2z"/>
 <path d="M1895 2291 c-48 -29 -67 -57 -72 -103 -11 -110 108 -185 198 -125 93 62 83 191 -17 233 -45 19 -73 18 -109 -5z"/>
 <path d="M1425 2236 c-37 -16 -83 -68 -91 -102 -11 -41 2 -110 25 -143 30 -42 75 -63 133 -63 158 0 216 199 86 295 -34 25 -113 32 -153 13z"/>
 <path d="M2214 2009 c-11 -6 -29 -24 -38 -40 -38 -64 8 -139 84 -139 92 0 123 132 41 175 -34 17 -57 18 -87 4z"/>
 <path d="M1773 1853 c-35 -7 -81 -56 -88 -95 -9 -46 17 -104 56 -123 15 -8 47 -15 70 -15 33 0 47 6 75 34 29 29 34 41 34 79 0 53 -27 93 -76 113 -19 8 -37 13 -41 13 -4 -1 -18 -4 -30 -6z"/>
 <path d="M1260 1799 c-38 -15 -60 -49 -60 -94 0 -55 32 -93 87 -101 39 -6 45 -4 78 29 27 27 35 43 35 71 0 68 -77 121 -140 95z"/>
 <path d="M2120 1685 c-73 -33 -112 -91 -112 -165 0 -155 188 -233 298 -124 58 58 67 149 23 221 -41 66 -140 99 -209 68z"/>
 <path d="M1414 1491 c-53 -32 -74 -68 -74 -124 0 -63 27 -108 79 -132 75 -33 158 -5 193 66 23 46 22 77 -4 129 -39 74 -127 102 -194 61z"/>
 <path d="M1819 1315 c-85 -46 -46 -180 53 -180 33 0 45 6 69 33 32 36 36 69 14 112 -26 50 -82 64 -136 35z"/>
 <path d="M418 2725 c-73 -49 -169 -223 -171 -310 -2 -68 30 -84 238 -115 150 -22 244 -49 297 -85 l38 -25 29 57 c16 32 36 67 44 78 14 18 12 21 -34 47 -61 35 -138 112 -216 215 -70 91 -145 163 -170 163 -10 0 -35 -11 -55 -25z"/>
 <path d="M3024 2708 c-26 -23 -74 -79 -107 -123 -77 -101 -155 -178 -217 -213 -45 -26 -47 -29 -33 -47 8 -11 28 -46 44 -78 l29 -57 38 25 c53 36 147 63 297 85 159 24 197 34 220 61 38 41 11 148 -67 264 -51 77 -86 109 -130 120 -22 6 -35 -1 -74 -37z"/>
 <path d="M780 1264 c-50 -35 -146 -62 -295 -84 -159 -24 -197 -34 -220 -61 -38 -41 -11 -148 67 -264 51 -77 86 -109 130 -120 22 -6 35 1 74 37 26 23 74 79 107 123 76 100 162 184 220 215 l44 23 -39 63 c-21 35 -38 68 -38 73 0 20 -16 18 -50 -5z"/>
 <path d="M2711 1233 c-16 -32 -36 -67 -44 -78 -14 -18 -12 -21 34 -47 61 -35 138 -112 216 -215 33 -43 81 -98 107 -121 52 -48 73 -50 129 -10 65 47 158 222 160 303 2 68 -30 84 -238 115 -150 22 -244 49 -297 85 l-38 25 -29 -57z"/>
 <path d="M1690 619 c0 -78 -19 -151 -79 -302 -27 -67 -52 -141 -55 -164 -5 -37 -3 -44 24 -66 78 -66 335 -63 403 5 38 37 35 57 -32 222 -62 153 -81 226 -81 305 l0 61 -90 0 -90 0 0 -61z"/>
 </g>
 <text x="4200" y="2400" font-size="2000" font-family="Source Sans Pro,Arial,sans-serif" fill="#eee">rýchlejšie.sk</text>
</svg>