<?xml version="1.0" encoding="UTF-8"?>
<svg xmlns="http://www.w3.org/2000/svg" xmlns:xlink="http://www.w3.org/1999/xlink" width="500" height="580" viewBox="0 0 500 580">
  <defs>
    <radialGradient id="radial-gradient" cx="-9795.261" cy="-8016.392" r="270.74" gradientTransform="translate(9985 8225)" gradientUnits="userSpaceOnUse">
      <stop offset="0" stop-color="#fff" stop-opacity="0.25"/>
      <stop offset="0.2" stop-color="#fff" stop-opacity="0.2"/>
      <stop offset="0.6" stop-color="#6b6b6b" stop-opacity="0.125"/>
      <stop offset="1" stop-opacity="0.125"/>
    </radialGradient>
  </defs>
  <title>Coat of Arms of Pezinok</title>
  <g id="coa_pezinok">
    <path id="field" d="M500,330V0H0V330C0,468.071,111.929,580,250,580S500,468.071,500,330Z" fill="#009739"/>
    <g id="coa">
      <g>
        <path d="M250,502a60.015,60.015,0,0,1,58.7,47.57,61,61,0,1,0-117.406,0A60.015,60.015,0,0,1,250,502Z" fill="#fff" stroke="#000" stroke-miterlimit="10" stroke-width="3"/>
        <path d="M250,514a48.012,48.012,0,0,0-46.577,59.614,249.5,249.5,0,0,0,93.154,0A48.012,48.012,0,0,0,250,514Z" fill="gold" stroke="#000" stroke-miterlimit="10" stroke-width="3"/>
        <path d="M391.165,306.066c14.782.46,26.938-3.3,37.189-10.05,14.491-9.535,29.232-11.767,46.646-9.238-14.811-11.054-30.4-11.955-46.6-9.192-12.569,2.142-25.906,1.292-37.235-3.652l79.512-34.657-84.937,3.142a71,71,0,0,0,31.03-25.731c10.23-15.217,23.11-23.8,40.036-29.162-17.344-3.663-32.043,2.4-46.1,12.114-10.9,7.538-23.506,12.65-35.609,13.092l61.982-67.18L359.65,186.015A83.237,83.237,0,0,0,379.8,148.521c4.412-18.583,13.47-32.206,27.331-44.647-17.237,4.286-28.81,16.385-38.577,31.577-7.576,11.785-17.528,22.082-28.564,27.843L375,73.818l-58.136,71.624c6.025-15.606,7.666-30.024,6.2-43.549-2.078-19.12,1.779-35.712,10.465-53.335-14.506,11.582-21.191,27.878-25.183,46.233-3.1,14.238-8.88,28.152-17.169,38.354H208.824c-5.289-15.958-12.951-27.494-22.267-35.857-13.169-11.822-20.595-26.7-25.237-46.264-3.169,20.042,2.075,37.028,10.484,53.269,6.523,12.6,10.947,27.162,11.329,41.149L125,73.818l35.016,89.475c-10.172-12.4-21.071-19.674-32.447-23.28-16.081-5.1-27.871-15.566-38.636-31.583,3.708,19.919,14.178,33.292,27.326,44.578,10.2,8.754,19.109,20.254,24.094,33.007L62.919,145.552l61.982,67.18c-13.5-6.962-25.982-8.859-37.686-7.161-16.546,2.4-30.9-2.055-46.155-12.092,10.023,16.762,24.125,24.487,40.009,29.1,12.321,3.578,24.362,10.262,33.191,19.839l-84.937-3.142,79.512,34.658c-14.782-.46-26.938,3.3-37.189,10.05C57.155,293.519,42.414,295.751,25,293.222c14.811,11.054,30.4,11.955,46.6,9.192,12.569-2.142,25.906-1.292,37.235,3.652L29.323,340.723l84.937-3.142a71,71,0,0,0-31.03,25.731C73,378.529,60.12,387.11,43.194,392.474c17.344,3.663,32.043-2.4,46.1-12.114,10.9-7.538,23.506-12.65,35.609-13.092l-61.982,67.18,77.431-40.463A83.237,83.237,0,0,0,120.2,431.479c-4.412,18.583-13.47,32.206-27.331,44.647,17.237-4.286,28.81-16.385,38.577-31.577,7.576-11.785,17.528-22.082,28.564-27.843L125,506.182l58.136-71.624c-6.025,15.606-7.666,30.024-6.2,43.549,2.078,19.12-1.779,35.712-10.465,53.335,14.506-11.582,21.191-27.878,25.183-46.233,3.1-14.238,8.88-28.152,17.169-38.354h82.352c5.289,15.958,12.951,27.494,22.267,35.857,13.169,11.822,20.6,26.7,25.237,46.264,3.169-20.042-2.075-37.028-10.484-53.269-6.523-12.6-10.947-27.162-11.329-41.149L375,506.182l-35.016-89.475c10.172,12.4,21.071,19.674,32.447,23.28,16.081,5.1,27.871,15.566,38.636,31.583-3.708-19.919-14.178-33.292-27.326-44.578-10.2-8.754-19.109-20.254-24.094-33.007l77.431,40.463L375.1,367.268c13.5,6.962,25.982,8.859,37.686,7.161,16.546-2.4,30.9,2.055,46.155,12.092-10.023-16.762-24.125-24.487-40.009-29.1-12.321-3.578-24.362-10.262-33.191-19.839l84.937,3.142Z" fill="gold" stroke="#000" stroke-miterlimit="10" stroke-width="3"/>
        <circle cx="250" cy="69" r="56" fill="gold" stroke="#000" stroke-miterlimit="10" stroke-width="3"/>
      </g>
      <g>
        <path d="M243.68,28.788a12.147,12.147,0,0,1,6.754-9.1c3.9,1.608,5.086,6.156,6.928,9.4,4.188-.528,8.022,2.7,9.685,6.22.394-.243,1.195-.736,1.6-.979.236.387.708,1.159.951,1.545A10.461,10.461,0,0,1,280.1,37c1.24,1.142,3.037.519,4.421,0a14.765,14.765,0,0,1,9.3,1.712C289.791,43.019,281.5,50.4,281.9,56.32c-.015,1.689-2.606,1.834-2.42,3.528.129,1.98-1.133,3.52-2.482,4.727,2.929,4.294,1.817,9.359,2.77,14.051,8.876,11.235,4.686,14.8,9.255,23.331,1.707,1.92,6.083,7.63,2.235,13.565,28.554,10.2,40.194,65.865,45.652,94.745,6.305,10.121,11.751,20.723,17.59,31.118,3.133,8.33,9.382,10.265,17.154,12.629,9.665,4.468,19.592,8.494,28.575,14.275-.755,6.407-9.151,1.551-12.972,1.113l.25,1.055c3.605,2.192,7.232,4.349,10.829,6.548q.339.793.633,1.609c-3.375,5.19-9.322.36-13.481-.933,1.348,2.488,4.05,3.863,5.712,6.142.715,3.424-3.837,2.489-5.74,1.744-3.994,4.291-9.633.058-13.556-2.429-5.92-4.824-14.147-5.377-19.985-10.335-3.494-1.639-5.2-6.548-8.939-7.117-.352,12.918-.335,25.873-1.483,38.761a197.972,197.972,0,0,1-11.4,16.9c-.473,16.025.989,24.23-12.319,35.556-.274,23.294-7.055,45.641-12.98,67.916a4.466,4.466,0,0,0-.77,3.369c7.862,10.382,13.727,22.79,15.55,35.76.22,8.66-9.474,12.773-14.621,18.52.229,3.686,2.152,4.721,4.5,7.533,4.059,11.038-12.3,10.653-20.3,2.283-9.441-9.881-15.375-12.261-25.044-15.9-2.5-.939-9.9,3.071-20.718-.742,0,0-1.863,3.979-5.809,4.117C213.61,480.6,207.565,504.9,195.913,490a31.533,31.533,0,0,1,5.848-14.634c-4.822-2.384-9.55-6.749-13.022-10.736-1.195-14.341,5-27.184,14.213-37.706-10.137-6.915-25.9-12.114-28.777-25.565-3.254-17.429-3.552-35.167-5.755-52.722-19.783-10.558-16.017-33.84-17.637-52.859-12.114-.945-21.629-8.962-29.12-18.031.693-24.087,19.832-96.517,46.719-100.634,8.11-21.725,16.768-48.258,37.7-60.743-3.916-.855-3.351-11.177,5.022-18.653-1.283-6.481-.387-14.184,4.179-19.3A18.114,18.114,0,0,1,220,64.788c-1.033-1.425-2.054-3.057-1.878-4.894-2.949-2.021-4.235-3.866-1.574-6.943a60.233,60.233,0,0,0-9.736-12.189c3.374-3.061,8.333-1,12.182-.123,2.718-3.871,7-4.94,11.492-4.122.093-.343.288-1.029.389-1.372.442.175,1.326.518,1.775.693C233.443,30.751,239,28.291,243.68,28.788Z"/>
        <g>
          <path d="M272.212,120.145c1.968-.9,3.1,1.3,4.106,2.591,5.864,12.326-7.393,24-18.727,26.078-5.892-3.418-13.362.7-19.473-1.465-10.35-2.8-22.133-19.817-10.969-27.832C225.026,148.57,273.814,149.215,272.212,120.145Z" fill="#009739"/>
          <path d="M250.208,159.05c10.495-.37,21.282-1.2,31.75,1.215,5.87,9.936-2.805,21.44-3.321,31.776-.326,8.643-1.958,17.318-3.788,25.756-5.28,11.2-45.079,12.5-50.218,1.649-1.8-4.722-4.773-9.316-5.636-14.265.936-1.691,2.767-2.572,3.787-4.2,4.319-.912,8.831-1.109,13.121-2.332,6.871-1.18,14.463.156,20.235-4.83.691-.675.863-2.008,2.029-2.047,12.515-4.025-1.493-6.471-6.685-6.99l.161-.485c4.892-1.393,12.089-.993,14.579-6.24-.337-1.668-2.13-2.527-3.734-2.482,1.056-1.3,2.927-2.7,1.825-4.591a50.581,50.581,0,0,0-16.5-2.623c-1.876,0-1.114-2.318-1.384-3.5a3.022,3.022,0,0,0-3.6-.316c-11.437,2-19.058,10.585-29.022,15.833-5.437-3.929-5.538-11.678-4.447-17.689C222.687,158.881,236.6,159.112,250.208,159.05Z" fill="#009739"/>
          <path d="M286.9,162.6c24.839-2.049,28.385,14.836,34.982,34.077,9.987,16.206,21.6,31.6,30.317,48.682-10.676,2.972-9.988,13.766-13.154,9.471-14.4-15.069-25.872-32.114-35.686-50.283C295.467,191.9,286.5,178.036,286.9,162.6Z" fill="#009739"/>
          <path d="M185.735,173.249c4.76-5.339,11.51-8.593,18.437-10.089a34.178,34.178,0,0,1-9.065,18.15c-3.92-1.889-8.008-3.7-12.344-4.3C182.7,175.16,184.568,174.338,185.735,173.249Z" fill="#009739"/>
          <path d="M183.923,199.378c9.493-4.445,18.829-9.3,28.082-14.242a14.877,14.877,0,0,0,6.321,16.1c-14.286,7.695-26.958,21.891-43.134,24.749C173.214,216.566,175.85,205.238,183.923,199.378Z" fill="#009739"/>
          <path d="M259.245,228.156c6.722-1.644,14.293-3,18.847-8.75,10.952,14.805,17.4,32.5,20.729,50.489a40.809,40.809,0,0,1-28.827.868c-.912-8.625,1.895-17.385,4.218-25.7-5.964,7.309-6.2,17.734-9.272,26.37-15.388.4-22.78-9.8-28.227-22.693-2.85-7.516-6.983-14.508-9.585-22.128A90.3,90.3,0,0,0,259.245,228.156Z" fill="#009739"/>
          <path d="M198.629,336.065c9.741,7.832,11.782,10.536,14.715,22.845A345.985,345.985,0,0,0,228.732,400.5c7.626,18.384,19.188,34.71,28.674,52.121-7.943,6.114-19.216,5.3-28.755,5.2-.065.308-.186.923-.25,1.224,12.3.79,26.264,3.359,37.08-4.191-24.017-30.092-40.682-65.387-50.008-102.888,5.741,3.053,11.9,5.83,17.242,9.541,7.182,12.917,14.743,25.6,22.944,37.877,15.039,20.664,29.944,43.644,52.235,56.982-5.581-7.614-14.783-12.2-6.783-22.326l.458.1c6.547,8.367,11.775,18.236,12.851,28.943-1.48,5.936-7.286,10.905-12.225,14.336l-.6-.078c-1.24-2.126-2.879-4.139-3.575-6.512,2.969-.978,6.007-.2,8.973.281-9.707-11.231-33.339.255-46.207,1.08-19.926,4.376-39.308-16.749-58.091-6.223l-.056.6a42.5,42.5,0,0,1,9.455-.053c-4.389,9.823-9.114,4.623-15.265-.267-6.425-6.531.733-25.059,6.719-30.61a15.156,15.156,0,0,1,1,4.982c-1.576,2.727-4.358,5.032-4.654,8.368l.611.014c10.328-17.314,27.472.911,41.307,1.458.235-.239.706-.71.941-.95-9.776-.89-16.76-9.9-26.56-11.131-2.779-.831-6.357.125-6.85-3.672A802.6,802.6,0,0,1,198.629,336.065Z" fill="#009739"/>
          <path d="M285.348,378.031c9.384-4.4,17.668-10.8,26.073-16.738-.235,26.619-8.114,53.9-19.977,77.606-8.474-6.515-15.458-16.022-21.524-24.9-.171-11.966-.347-24.794,2.817-36.289A46.615,46.615,0,0,0,285.348,378.031Z" fill="#009739"/>
          <path d="M241.088,366.881a288.645,288.645,0,0,1,28.083,10.5c-2.051,10.131-2.551,20.519-3.616,30.742C255.913,395.652,247.164,381.6,241.088,366.881Z" fill="#009739"/>
        </g>
        <g>
          <path d="M245.873,32.387a11.026,11.026,0,0,1,4.25-8.312c2.367,1.928,4.174,4.779,3.7,7.96,3.779-1.528,10.584.288,9.933,5.414-16.817-6.25-5.734,14.73,3.6.956.1,13.128,17.621,6.571,2.793.492,3.145-2.168,8.661-1.25,10.335,2.453,2.26-2.086,5.645-2.034,8.471-1.441-3.146,4.181-6.272,8.412-9.587,12.445a63.467,63.467,0,0,0-60.512-.381c-2.427-3.424-4.942-6.793-7.267-10.288a10.239,10.239,0,0,1,8.278,3.15,7.947,7.947,0,0,1,8.332-5.283c-10.08,8.784,5.521,9.619,4.331-.467,9.456,12.3,19.093-5.889,2.745-1.91C236.472,32.424,241.54,29.6,245.873,32.387Z" fill="gold"/>
          <path d="M233.5,48.348c13.311-3.162,27.453-3.131,43.85,5.246,2.808,1.434,1.737,3.231.115,2.636-17.547-10.371-40.4-9.354-57.978,1.1a1.047,1.047,0,0,1-1.419-1.472C220.361,52.338,230.831,49.227,233.5,48.348Z" fill="gold"/>
          <path d="M230.3,54.53c14.863-4.641,33.9-5.991,46.362,4.7.621.534-.321,2.539-1.147,2C260.337,51.7,240.23,50.6,224.8,60.464c-1.2.786-2.965,2.868-4.149.7a.924.924,0,0,1,.231-1.03A24.066,24.066,0,0,1,230.3,54.53Z" fill="gold"/>
          <path d="M252.853,156.5c-1.253-.431-9.873,1.208-9.6-1.4.189-1.2-.72-4.664,1.4-4.6h8.206c2.108-.063,1.221,3.407,1.4,4.6A1.4,1.4,0,0,1,252.853,156.5Z" fill="gold"/>
          <path d="M217.613,466.849c7.683-2.08,14.243,4.959,21.9,5.458-.655,4.349-6.551,3.658-9.814,4.338-10.239,2.4-17.523,11.079-27.781,13.947-.331-.352-1-1.05-1.329-1.4.651-6.255,3.526-11.637,9.559-14.056A23.53,23.53,0,0,1,217.613,466.849Z" fill="gold"/>
          <path d="M270.581,474.227c18.723-5.921,22.666-8.616,30.918,11.392,1.321,3.364,7.865,8.554,3.164,8.914-8.951.684-16.158-8.25-22.456-14.38C278.609,477.651,274.127,476.8,270.581,474.227Z" fill="gold"/>
        </g>
        <g>
          <path d="M251.648,59.775a5.638,5.638,0,0,1-.861-4.067c11.447,15.774,21.589,10.284,19.521,35.546a47.625,47.625,0,0,0,1.839,7.4c1.188,2.991,12.211,11.666,6.37,13.568.633-4.57-4.095-7.353-6.555-10.632-6.175-9.2-.3-21.234-6.479-30.408C261.9,66.18,255.138,64.876,251.648,59.775Z" fill="#fff"/>
          <path d="M238.663,58.81c1.374-.38,2.172-2.031,3.667-1.984-1.208,2.612-4.246,3.473-6.506,4.941-16.566,8-9.513,23-14.46,36.2-2.6,4.953-11.583,10.1-4.96,15.794-10.05-2.395.434-12.267,3.655-16.325C225.31,80.43,217.265,68.453,238.663,58.81Z" fill="#fff"/>
          <path d="M243.207,59.146c.7-.819,1.091-1.939,2.032-2.537-.6,10.087-17.552,8.078-17.876,21.36-.744,8.854,1.28,19.421-5.586,26.384-2.493,2.152-4.455,4.936-2.324,8.052-8.4-3.055,2.818-9.419,4.127-13.583C229.841,73.8,217.54,75.886,243.207,59.146Z" fill="#fff"/>
          <path d="M254.905,56.783c1.193-.348,1.706,1.2,2.6,1.7,5.226,5.115,12.684,8.3,15.246,15.645,3.375,7.126-.3,15.594,3.687,22.561,1.99,5.517,11.468,11.112,6.2,17.252-.024-13.767-12.742-12.85-10.045-31.305C272.9,65.182,258.4,66.906,254.905,56.783Z" fill="#fff"/>
          <path d="M260.315,57.267c9.258,3.935,18.843,11.985,15.954,23.116C273.652,62.255,268.308,66.954,260.315,57.267Z" fill="#fff"/>
          <path d="M225.434,64.137c3.382-3.112,7.3-5.83,11.913-6.65C227.218,62.317,219,71.479,220.035,83.323l-.417.293C218.727,76.73,219.4,68.594,225.434,64.137Z" fill="#fff"/>
          <path d="M277.466,84.147c.81,4.777,1.3,9.669,3.251,14.176-.008.719,1.278,1.408.245,1.961C277.659,95.75,275.479,89.773,277.466,84.147Z" fill="#fff"/>
          <path d="M214.752,84.243c.3,3.817.683,8.254-1.461,11.651-.948-1.394-.065-2.985,0-4.479C213.419,88.988,213.14,86.293,214.752,84.243Z" fill="#fff"/>
          <path d="M217.43,83.733c2.356,4.911,2.319,12.518-2.609,15.868C217.735,94.692,217.031,89.094,217.43,83.733Z" fill="#fff"/>
          <path d="M280.346,86.28c2.677,2.553,3.226,6.735,2.9,10.286C280.664,93.807,280.579,89.787,280.346,86.28Z" fill="#fff"/>
          <path d="M284.451,100.863c2.556,3.872,7.374,9.991,1.911,13.579C288.988,109.489,284.793,105.613,284.451,100.863Z" fill="#fff"/>
          <path d="M207.328,109.906c.079-3.938,3.219-6.839,5.6-9.634-1.347,4.91-5.863,10.269-.815,14.641C209.218,115.892,206.622,112.608,207.328,109.906Z" fill="#fff"/>
          <path d="M245.806,62.574c1.416-1.3,1.739-3.248,2.643-4.817,9.2,17.767,19.153,3.59,18.309,34.138l-.8-1.513c-1.254-.171-1.287,1.69-1.608,2.546-4.794,23.62-26.059,24.3-32.047.862-.595-1.062.077-2.542-.925-3.412-1.253-.919-1.334,1.157-1.766,1.845-1.555-.214-.293-2.365,0-3.271C228.876,70.184,231.38,71.8,245.806,62.574Zm4.272,15.147c-.1,3.815-.065,7.641.19,11.45l.533.3.519-.413c.364-3.831-.3-7.821,1.006-11.531,3.692-2.523,8.616-2.164,12.772-1.513-.1-.311-.3-.941-.4-1.252C260.446,73.3,251.821,72.48,250.078,77.721ZM233.28,74.6c-1.006.661-2.852.88-2.9,2.374,1.1.794,2.217-.462,3.286-.719,3.4-1.429,7.188-.584,10.512.638,1.05.627,2.562-.462,1.651-1.553C242.064,73,237.347,73.375,233.28,74.6Zm22.032,4.469c-.986.346-2.692.805-1.91,2.2a1.966,1.966,0,0,1,2.15,1.607c3.55,5.83,7.574-.307,10.267-3.314C262.661,77.657,258.724,78.2,255.312,79.064Zm-24.086,2.029c4.844,3.709,5.75,8.625,11.684,1.936.988-.136,2.112.075,2.59-1.065C241.789,78.361,235.078,77.855,231.226,81.093Zm16.92,11.77c-1.37-.166-2.9-1.393-4.215-.581l-.154,1.78c1.078.39,2.251,0,3.313.41,1.232,1.089,9.528-.892,6.6-2.854C251.637,91.321,250.169,93.727,248.146,92.863Zm.423,5.336c-1.792-.261-3.627-1.487-5.437-.9a1.611,1.611,0,0,0,1.808,2.469c1.862-.657,3.716,1.03,5.57.078,1.7-.767,6.137.244,4.43-3C252.744,96.306,250.678,97.771,248.569,98.2Zm-2.09,4.225c-.3,4.006,7.639,2.093,5.149-1.405C250.248,102.341,248.3,102.514,246.479,102.424Z" fill="#fff"/>
          <path d="M253.343,113.085c3.879-1.527,6.7-4.8,9.041-8.129-2.071,17.811,10.71,10.776,4.924,24.853-6.975,13.3-28.958,12.305-35.75-.785-5.272-11.457,6.976-10.029,3.568-23.288.111-.105.317-.316.42-.429C238.774,111.251,246.564,115.676,253.343,113.085Z" fill="#fff"/>
          <path d="M240.585,168.136c1.036-.366,1.956-.993,2.986-1.4L244,168.1c-3.96,2.8-10.416,2.3-12.894,7.125,9.514-4.419,20.613-4.992,30.848-2.917-.525.643-1.063,1.264-1.63,1.87-5.731.508-17.062-1.476-19.995,4.051,6.884.6,14.121-.548,21.084-.892a1.79,1.79,0,0,1,1.916.81c-6.071,4.323-14.97,2.556-21.98,4.749a3.294,3.294,0,0,0-.921,2.374l.531.342c5.591.122,10.915,2.25,16.487,2.559.691-.043,2.344.007,1.859,1.154-6.236,1.912-13.365-1.457-19.467.231-.8,4.353,10.71,1.707,12.966,3.129-4.657,3.263-10.839,2.2-16.231,2.207-4.09.953-8.093,2.548-12.336,2.622a6.976,6.976,0,0,1-7.4-2.979C209.633,182.057,231.258,171.812,240.585,168.136Z" fill="#fff"/>
          <path d="M343.923,257.467c.042-4.866,4.683-8.367,9.241-8.707,2.13.91,3.545,2.953,5.539,4.133,13.439,3.4,26.132,9.415,38.5,15.675l-.554.973a82.793,82.793,0,0,1-16.3-4.961c-4.327-2.6-9.418-6.359-14.509-6.212,5.1,3.589,10.919,6.831,15.977,10.8l.038.547c-3.975,1.413-7.964-1.515-11.847-2.378-6.493.3-12.386-1.334-17.22-5.853,1.928,6.922,10.833,7.975,16.935,7.723.909,2.507-2.382,4.427-2.03,6.749l.715.2c1.643-1.51,3.1-3.211,4.655-4.809,6.473,2.206,10.728,8.455,16.136,12.436-6.309,1.9-11.28-6.821-17.037-8.667-.64.633-1.58,1.231-1.531,2.26a4.64,4.64,0,0,0,2.537.4c2.466,2.754,6.487,4.13,8.6,7.032-6.108.174-11.245-6.03-16.768-8.459C355.934,273.271,346.443,267.261,343.923,257.467Z" fill="#fff"/>
          <path d="M379.286,272.075c1.625-.338,3.461.227,4.831-.944,4.123,2.455,8.6,4.443,12.376,7.422C393.383,280.694,381.929,274.48,379.286,272.075Z" fill="#fff"/>
          <ellipse cx="236.551" cy="82.139" rx="0.875" ry="1.5" fill="#fff"/>
          <ellipse cx="258.103" cy="81.566" rx="0.875" ry="1.5" fill="#fff"/>
        </g>
        <g>
          <path d="M143.255,272.041c-2.343-4.35,2.127-10.22,7.013-8.755.489,4.6-.081,9.668-.29,14.307A8.546,8.546,0,0,1,143.255,272.041Z" fill="#d92a22"/>
          <path d="M259.783,329.077c11.457,2.67,23.036,5.544,34.829,6.415C280.521,350.594,271.878,340.289,259.783,329.077Z" fill="#d92a22"/>
          <path d="M266.731,114.317c-.956-.667-.251-2.658,1-2.041,11.325,2.166,23.261,6.418,31.914,14.2,17.44,20.613,24.578,48.761,29.877,74.773-4.493-.5-8.282-19.418-10.771-24.038.559.062,1.67.194,2.23.257-11.927-22.161-41.674-20.491-63.482-21.8a13.316,13.316,0,0,1-.129-3.669c7.992-3.915,18.178-6.568,21.37-16.043,2.663-6.869,3.37-18.066-4.917-21.185.136.678.416,2.029.553,2.7C271.823,116.549,268.4,116.812,266.731,114.317Z" fill="#d92a22"/>
          <path d="M219.343,115.8c3.7-1.982,7.915-2.631,11.955-3.615.13.291.384.864.514,1.155-1.132,2.455-4.512,2.533-6.783,3.475l.51-2.3c-2.346-.224-3.474,2.7-4.717,4.326-4.407,13.956,5.48,28.365,19.193,31.856a15.013,15.013,0,0,1,.292,5.082c-21.369,2.06-49.874.259-62.488,21.094-1.294.015-2.587-.042-3.88-.07,6.089-18.319,14.479-36.66,27.375-51.212C206.644,121.207,213.154,118.71,219.343,115.8Z" fill="#d92a22"/>
          <path d="M201.04,182.525c1.5-3.692,2.623-7.549,4.319-11.143,1.309,3.292,1.571,7.116,2.921,10.5-.536,2.152-3.413,2.859-5.3,3.523A6.269,6.269,0,0,1,201.04,182.525Z" fill="#d92a22"/>
          <path d="M168.547,181.085a35.353,35.353,0,0,1,29.968,5.835l-.016.417c-12.931,10.053-26.132-3.382-35.682,14.948-8.836,14.411-33.526,62.536-19.492,76,14.225,5.617,5.488,16.713-5.86,8.42-11-4.84-11.531-14.825-9.206-25.234C134.294,237.828,144.52,191.107,168.547,181.085Z" fill="#d92a22"/>
          <path d="M286.437,184.094l.448.225c4.176,7.309,8.119,14.75,12.463,21.969.9,1.515,2.357,3.013,1.805,4.949-1.093,10.243-2.052,20.625-5.278,30.469l-.6-.293C283.443,210.3,275,223.56,286.437,184.094Z" fill="#d92a22"/>
          <path d="M169.7,199.227a23.354,23.354,0,0,1,12.393-3.548c-14.812,13.265-14.1,56.287-15.647,75.874-.25-.092-.742-.282-.991-.381-3.929-7.99-13.547-15.236-22.448-10.488C147.014,238.834,154.255,215.744,169.7,199.227Z" fill="#d92a22"/>
          <path d="M191.808,223.275c7.386-4.779,14.118-10.5,21.483-15.307,14.571,22.221,19.558,49.863,37.419,70.226,13.994,15.053,31.922,28.077,53.1,29.286,11.859-2.379,22.156-23.458,25.638-34.418-8.193,12.649-18.893,33.872-36.917,29.128-13.817-3.062-25.8-11.583-35.344-21.8-1.62-1.862-4.975-3.969-3.713-6.774,19.267,3.142,69.229,5.728,71.533-20.833l-.486.227c-4.773,6.906-11.587,13.091-19.719,15.819-1.892-5.577-3.35-11.3-5.335-16.845,2.715-12.728,3.26-25.673,4.211-38.595l.468.262c7.7,16.219,20.852,28.687,31.989,42.5,1.34,1.517.827,3.612.946,5.448,1.488,28.628,2.973,43.888-19.9,64.443-16.807,14.369-53.884-.57-72.524-7.313,8.881,11.05,19.979,20.086,32.064,27.47,10.556,4.287,19.917-5.624,27.622-11.592,8.3.313,13.585-5.028,19.348-10.342l.527.234c2.475,13.415-4.117,25.247-14.881,32.97-7.276,6.134-14.64,12.578-23.142,16.924-28.437-.476-76.663-25.317-90.17-50.9-12.318-29.177-14.649-61.916-16.982-93.171,2.22-1.591,5.1-2.226,7.193-4.121,12.434,46.34,30.685,97.605,74.359,123.676-34.71-25.946-54.442-65.575-65.439-106.731a190.784,190.784,0,0,0,76.806,71.622C237.985,292.6,203.941,263.318,191.808,223.275Z" fill="#d92a22"/>
          <path d="M172.533,231.533c1.043.31,2.085.664,3.143.953,4.377,41.326,9.534,82.446,12.908,123.85-8.64-8.01-20.559-12.022-27.711-21.7-1.639-1.308-2.055-3.33-2.314-5.3-3.256-20.961-3.816-42.23-3.424-63.4,6.524,2.107,10.092,9.273,13.315,14.841,1.254-.153,1.081-1.8,1.3-2.7C169.935,262.553,170.5,246.925,172.533,231.533Z" fill="#d92a22"/>
          <path d="M188.455,321.587c9.693,12.893,5.463,31,8.227,46.234.3,17.451,3.407,34.682,5.044,51.995-12.148-4.045-28.445-15.771-18.856-29.778,3.985-5.111,8.068-10.372,10.094-16.611C193.625,356.2,189.7,338.846,188.455,321.587Z" fill="#d92a22"/>
          <path d="M173.967,350.418c22.857,10.289,17.891,25.094,3.791,40.9C175.764,377.78,175.257,364.026,173.967,350.418Z" fill="#d92a22"/>
        </g>
      </g>
    </g>
    <g id="border">
      <path d="M496,4V330A246.066,246.066,0,0,1,23.33,425.753,244.463,244.463,0,0,1,4,330V4H496m4-4H0V330C0,468.071,111.929,580,250,580S500,468.071,500,330V0Z"/>
    </g>
  </g>
  <g id="effect" opacity="0.3">
    <path id="gloss" d="M500,330V0H0V330C0,468.071,111.929,580,250,580S500,468.071,500,330Z" fill="url(#radial-gradient)"/>
  </g>
</svg>
