<svg role="presentation" focusable="false" class="idsk-header__logotype-crown" xmlns="http://www.w3.org/2000/svg" width="188" height="30" viewBox="0 0 277 44" fill="none"><style>
        .a {
            fill: white;
        }
    </style><path d="M13.7 39L13.5 38.9C8 36.3 0 31 0 20.4 0 15.2 0.1 11.5 0.2 9 0.3 7.8 0.4 6.9 0.4 6.3 0.4 6 0.5 5.7 0.5 5.6 0.5 5.5 0.5 5.5 0.5 5.4 0.5 5.4 0.5 5.4 0.5 5.4 0.5 5.4 0.5 5.4 0.5 5.4 0.5 5.4 0.5 5.4 0.5 5.4L0.5 5.4C0.5 5.4 0.5 5.4 0.9 5.4 0.9 5.4 0.4 10.1 0.4 20.4 0.4 30.7 8.2 35.9 13.7 38.6 19.1 35.9 26.9 30.7 26.9 20.4 26.9 10.1 26.4 5.4 26.4 5.4 26.8 5.4 26.8 5.4 26.8 5.4L26.8 5.4C26.8 5.4 26.8 5.4 26.8 5.4 26.8 5.4 26.8 5.4 26.8 5.4 26.8 5.5 26.9 5.5 26.9 5.6 26.9 5.7 26.9 6 26.9 6.3 27 6.9 27 7.8 27.1 9 27.2 11.5 27.3 15.2 27.3 20.4 27.3 31 19.3 36.3 13.8 38.9L13.7 39ZM26.4 5.4L26.8 5.4 26.8 5H0.5L0.5 5.4 0.9 5.4H26.4Z" class="a"></path><path d="M14.8 25.8V20.1C16.5 20.1 19.4 20.1 21.8 20.9 21.8 20.9 21.7 20 21.7 18.9 21.7 17.8 21.8 16.9 21.8 16.9 19.2 17.8 16.3 17.7 14.8 17.7V14.1C16.2 14.1 18.1 14.2 20.3 14.9 20.3 14.9 20.2 14 20.2 12.9 20.2 11.8 20.3 10.9 20.3 10.9 18.1 11.7 16.2 11.7 14.8 11.7 14.9 9.4 15.6 6.6 15.6 6.6 15.6 6.6 14.2 6.7 13.7 6.7 13.1 6.7 11.8 6.6 11.8 6.6 11.8 6.6 12.4 9.4 12.5 11.7 11.1 11.7 9.2 11.7 7 10.9 7 10.9 7.1 11.8 7.1 12.9 7.1 14 7 14.9 7 14.9 9.2 14.2 11.2 14.1 12.5 14.1V17.7C11 17.7 8.1 17.8 5.6 16.9 5.6 16.9 5.6 17.8 5.6 18.9 5.6 20 5.6 20.9 5.6 20.9 7.9 20.1 10.8 20.1 12.5 20.1V25.8H14.8V25.8Z" class="a"></path><path d="M24.3 29.8C23.6 28.5 22.5 27.2 20.9 27.2 18.7 27.2 17.9 29 17.9 29 17.9 29 16.4 25.2 13.7 25.2 10.9 25.2 9.4 29 9.4 29 9.4 29 8.6 27.2 6.4 27.2 4.9 27.2 3.7 28.5 3 29.8 5.8 34.2 10.2 36.9 13.7 38.6 17.1 36.9 21.5 34.2 24.3 29.8Z" class="a"></path>
	<text x="32" y="35" fill="white" font-size="44" font-family="-apple-system,BlinkMacSystemFont,Segoe UI,Roboto,Helvetica Neue,Arial,Noto Sans,sans-serif,Apple Color Emoji,Segoe UI Emoji,Segoe UI Symbol,Noto Color Emoji;">korona.gov.sk</text>
	
	</svg>